HIERARCHY
ROOT Hips
{
	OFFSET 0.000000 0.000000 0.000000
	CHANNELS 6 Xposition Yposition Zposition Zrotation Yrotation Xrotation 
	JOINT LHipJoint
	{
		OFFSET 0.000000 0.000000 0.000000
		CHANNELS 3 Zrotation Yrotation Xrotation
		JOINT LeftUpLeg
		{
			OFFSET 1.363060 -1.794630 0.839290
			CHANNELS 3 Zrotation Yrotation Xrotation
			JOINT LeftLeg
			{
				OFFSET 2.448110 -6.726130 0.000000
				CHANNELS 3 Zrotation Yrotation Xrotation
				JOINT LeftFoot
				{
					OFFSET 2.562200 -7.039590 0.000000
					CHANNELS 3 Zrotation Yrotation Xrotation
					JOINT LeftToeBase
					{
						OFFSET 0.157640 -0.433110 2.322550
						CHANNELS 3 Zrotation Yrotation Xrotation
						End Site
						{
							OFFSET 0.000000 0.000000 0.000000
						}
					}
				}
			}
		}
	}
	JOINT RHipJoint
	{
		OFFSET 0.000000 0.000000 0.000000
		CHANNELS 3 Zrotation Yrotation Xrotation
		JOINT RightUpLeg
		{
			OFFSET -1.305520 -1.794630 0.839290
			CHANNELS 3 Zrotation Yrotation Xrotation
			JOINT RightLeg
			{
				OFFSET -2.542530 -6.985550 0.000000
				CHANNELS 3 Zrotation Yrotation Xrotation
				JOINT RightFoot
				{
					OFFSET -2.568260 -7.056230 0.000000
					CHANNELS 3 Zrotation Yrotation Xrotation
					JOINT RightToeBase
					{
						OFFSET -0.164730 -0.452590 2.363150
						CHANNELS 3 Zrotation Yrotation Xrotation
						End Site
						{
							OFFSET 0.000000 0.000000 0.000000
						}
					}
				}
			}
		}
	}
	JOINT LowerBack
	{
		OFFSET 0.000000 0.000000 0.000000
		CHANNELS 3 Zrotation Yrotation Xrotation
		JOINT Spine
		{
			OFFSET 0.028270 2.035590 -0.193380
			CHANNELS 3 Zrotation Yrotation Xrotation
			JOINT Spine1
			{
				OFFSET 0.056720 2.048850 -0.042750
				CHANNELS 3 Zrotation Yrotation Xrotation
				JOINT Neck
				{
					OFFSET 0.000000 0.000000 0.000000
					CHANNELS 3 Zrotation Yrotation Xrotation
					JOINT Neck1
					{
						OFFSET -0.054170 1.746240 0.172020
						CHANNELS 3 Zrotation Yrotation Xrotation
						JOINT Head
						{
							OFFSET 0.104070 1.761360 -0.123970
							CHANNELS 3 Zrotation Yrotation Xrotation
							End Site
							{
								OFFSET 0.000000 0.000000 0.000000
							}
						}
					}
				}
				JOINT LeftShoulder
				{
					OFFSET 0.000000 0.000000 0.000000
					CHANNELS 3 Zrotation Yrotation Xrotation
					JOINT LeftArm
					{
						OFFSET 3.362410 1.200890 -0.311210
						CHANNELS 3 Zrotation Yrotation Xrotation
						JOINT LeftForeArm
						{
							OFFSET 4.983000 -0.000000 -0.000000
							CHANNELS 3 Zrotation Yrotation Xrotation
							JOINT LeftHand
							{
								OFFSET 3.483560 -0.000000 -0.000000
								CHANNELS 3 Zrotation Yrotation Xrotation
								JOINT LeftFingerBase
								{
									OFFSET 0.000000 0.000000 0.000000
									CHANNELS 3 Zrotation Yrotation Xrotation
									JOINT LeftHandIndex1
									{
										OFFSET 0.715260 -0.000000 -0.000000
										CHANNELS 3 Zrotation Yrotation Xrotation
										End Site
										{
											OFFSET 0.000000 0.000000 0.000000
										}
									}
								}
								JOINT LThumb
								{
									OFFSET 0.000000 0.000000 0.000000
									CHANNELS 3 Zrotation Yrotation Xrotation
									End Site
									{
										OFFSET 0.000000 0.000000 0.000000
									}
								}
							}
						}
					}
				}
				JOINT RightShoulder
				{
					OFFSET 0.000000 0.000000 0.000000
					CHANNELS 3 Zrotation Yrotation Xrotation
					JOINT RightArm
					{
						OFFSET -3.136600 1.374050 -0.404650
						CHANNELS 3 Zrotation Yrotation Xrotation
						JOINT RightForeArm
						{
							OFFSET -5.241900 -0.000000 -0.000000
							CHANNELS 3 Zrotation Yrotation Xrotation
							JOINT RightHand
							{
								OFFSET -3.444170 -0.000000 -0.000000
								CHANNELS 3 Zrotation Yrotation Xrotation
								JOINT RightFingerBase
								{
									OFFSET 0.000000 0.000000 0.000000
									CHANNELS 3 Zrotation Yrotation Xrotation
									JOINT RightHandIndex1
									{
										OFFSET -0.622530 -0.000000 -0.000000
										CHANNELS 3 Zrotation Yrotation Xrotation
										End Site
										{
											OFFSET 0.000000 0.000000 0.000000
										}
									}
								}
								JOINT RThumb
								{
									OFFSET 0.000000 0.000000 0.000000
									CHANNELS 3 Zrotation Yrotation Xrotation
									End Site
									{
										OFFSET 0.000000 0.000000 0.000000
									}
								}
							}
						}
					}
				}
			}
		}
	}
}
MOTION
Frames: 8
Frame Time: 0.008333
-2.218834 17.221148 0.292728 12.143787 -79.463576 -3.550642 -9.342298 1.546953 3.843099 -11.523167 -11.597508 -13.359299 -2.044560 -0.217524 12.774174 1.289955 7.128021 -6.643208 0.179399 0.000000 -34.335800 10.942405 0.628003 -1.210917 5.478932 -7.509727 -38.501423 -1.514486 -3.836062 62.734571 -1.724601 -5.397958 20.032249 -1.958100 0.000000 -83.692000 -2.617398 -3.104237 -2.626087 -1.193891 -3.050332 -3.399468 -6.770525 -3.150454 0.231047 10.814776 -9.770490 -7.243327 -3.455908 -0.275592 0.137834 0.000000 0.000000 0.000000 -2.468711 2.377841 1.375606 -70.462627 1.004825 16.383315 -3.109054 -25.978943 0.003541 2.373430 -2.721140 -0.058134 -0.073365 0.025936 -0.000000 0.000000 0.000000 0.000000 0.000000 0.000000 0.000000 16.156132 -7.815734 0.900856 72.328250 -2.732571 -3.478480 3.398603 20.382417 0.025191 -3.399843 15.669899 -0.484469 0.107608 -0.092518 0.000000 0.000000 0.000000 0.000000 0.000000 0.000000 0.000000 
-2.190452 17.216885 0.328662 10.885892 -79.016463 -2.469045 -9.415324 1.456963 3.666101 -11.481275 -11.403304 -13.159824 -2.054130 -0.200863 12.862519 1.217788 6.675506 -6.661495 0.156200 0.000000 -34.516200 10.921227 0.960894 -1.300682 5.208924 -7.548035 -41.110048 -1.688425 -4.008913 66.388652 -1.783599 -3.796446 24.692777 -1.304600 0.000001 -82.626699 -2.497770 -3.252476 -2.253604 -1.173107 -3.198775 -3.334570 -6.815806 -3.293677 0.191288 10.921264 -9.805874 -7.290777 -3.482372 -0.276434 0.120517 0.000000 0.000000 0.000000 -2.337716 2.073660 1.417566 -70.372878 0.705211 16.804579 -3.095210 -26.289267 0.003472 2.451703 -2.756145 -0.060820 -0.074092 0.029235 -0.000000 0.000000 0.000000 0.000000 0.000000 0.000000 0.000000 16.386122 -7.955819 0.955112 72.382237 -3.181541 -3.827358 3.415494 19.938327 0.024797 -3.255904 15.494636 -0.458998 0.106149 -0.089820 0.000000 0.000000 0.000000 0.000000 0.000000 0.000000 0.000000 
-2.159867 17.213915 0.363952 9.484614 -78.596109 -1.274062 -9.493331 1.358819 3.483656 -11.378889 -11.257816 -12.929627 -2.050009 -0.178943 12.979847 1.159947 6.307835 -6.696864 0.134400 0.000000 -34.642800 10.868499 1.292695 -1.412965 5.004702 -7.589485 -43.700571 -1.811841 -4.196095 69.885102 -1.828062 -1.992631 28.795083 -0.350000 -0.000001 -80.902800 -2.311550 -3.399056 -1.846683 -1.140536 -3.349219 -3.264939 -6.865909 -3.438472 0.145743 11.013812 -9.821988 -7.329937 -3.514262 -0.277726 0.104989 0.000000 0.000000 0.000000 -2.246203 1.755878 1.464138 -70.235054 0.406041 17.248138 -3.079660 -26.628294 0.003404 2.534635 -2.802836 -0.064006 -0.074760 0.032550 0.000000 0.000000 0.000000 0.000000 0.000000 0.000000 0.000000 16.620909 -8.080977 1.011559 72.436401 -3.604108 -4.161482 3.435290 19.451769 0.024341 -3.083779 15.283171 -0.429227 0.104561 -0.087117 0.000000 0.000000 0.000000 0.000000 0.000000 0.000000 0.000000 
-2.127764 17.212677 0.398895 7.926789 -78.209463 0.053410 -9.575410 1.253628 3.305315 -11.208659 -11.187707 -12.675198 -2.029673 -0.152250 13.125576 1.120539 6.054308 -6.749463 0.114900 0.000001 -34.707699 10.790387 1.615754 -1.550390 4.887341 -7.642901 -46.289096 -1.918125 -4.408075 73.250907 -1.853753 -0.196158 32.172744 0.752300 -0.000000 -78.939200 -2.051491 -3.539058 -1.418151 -1.094934 -3.497097 -3.193621 -6.919529 -3.580499 0.093694 11.085909 -9.810420 -7.353506 -3.550972 -0.279535 0.093447 0.000000 0.000000 0.000000 -2.198405 1.420330 1.514411 -70.054308 0.113550 17.698397 -3.062775 -26.978570 0.003340 2.621846 -2.863673 -0.067692 -0.075350 0.035818 0.000000 0.000000 0.000000 0.000000 0.000000 0.000000 0.000000 16.847622 -8.182097 1.069554 72.495502 -4.008823 -4.499386 3.459300 18.912025 0.023850 -2.884225 15.044715 -0.395658 0.102894 -0.084399 -0.000000 0.000000 0.000000 0.000000 0.000000 0.000000 0.000000 
-2.094751 17.213569 0.433846 6.199845 -77.859695 1.532125 -9.661283 1.142065 3.137982 -10.966045 -11.211492 -12.400164 -1.991595 -0.121545 13.294987 1.102190 5.935629 -6.817304 0.098000 0.000000 -34.708600 10.690647 1.927553 -1.712190 4.873150 -7.707602 -48.887585 -2.037805 -4.646444 76.508371 -1.865401 1.360344 34.758518 1.799500 -0.000000 -77.237700 -1.711629 -3.668599 -0.979702 -1.035076 -3.638706 -3.122286 -6.974260 -3.716146 0.038948 11.132595 -9.774505 -7.360310 -3.590729 -0.281758 0.086394 0.000000 0.000000 0.000000 -2.196827 1.078576 1.566492 -69.839676 -0.186216 18.153671 -3.045426 -27.308759 0.003286 2.714685 -2.940092 -0.071980 -0.075912 0.039005 0.000000 0.000000 0.000000 0.000000 0.000000 0.000000 0.000000 17.053571 -8.262366 1.127312 72.561411 -4.388664 -4.838021 3.488573 18.303472 0.023356 -2.665632 14.786093 -0.360089 0.101264 -0.081647 -0.000000 0.000000 0.000000 0.000000 0.000000 0.000000 0.000000 
-2.061214 17.216902 0.469205 4.288354 -77.546354 3.179796 -9.751377 1.024830 2.985975 -10.648267 -11.336781 -12.106963 -1.935315 -0.087377 13.483196 1.105749 5.960386 -6.897295 0.083900 0.000000 -34.649300 10.570807 2.228594 -1.894933 4.972198 -7.776432 -51.504234 -2.193183 -4.906815 79.677063 -1.871541 2.478426 36.548071 2.598799 0.000000 -76.060300 -1.287323 -3.784357 -0.542026 -0.960125 -3.770831 -3.053243 -7.028091 -3.842391 -0.018393 11.149243 -9.709235 -7.345955 -3.632364 -0.284374 0.085215 0.000000 0.000000 0.000000 -2.241779 0.730491 1.619461 -69.604233 -0.494880 18.599628 -3.028233 -27.593177 0.003241 2.812854 -3.031026 -0.076868 -0.076446 0.042080 0.000000 0.000000 0.000000 0.000000 0.000000 0.000000 0.000000 17.226920 -8.315652 1.184271 72.637034 -4.750240 -5.196337 3.524237 17.620270 0.022874 -2.427051 14.508907 -0.322520 0.099721 -0.078857 -0.000000 0.000000 0.000000 0.000000 0.000000 0.000000 0.000000 
-2.027801 17.222821 0.505313 2.193918 -77.266030 5.001348 -9.845902 0.903517 2.851621 -10.257639 -11.562005 -11.797401 -1.861748 -0.050395 13.682543 1.130585 6.126282 -6.984414 0.072300 0.000000 -34.538400 10.431190 2.520758 -2.092735 5.184385 -7.836700 -54.141916 -2.396791 -5.181351 82.765550 -1.880736 3.031841 37.580409 3.015300 0.000000 -75.511399 -0.778266 -3.883982 -0.114955 -0.869977 -3.891011 -2.988168 -7.078764 -3.956932 -0.076554 11.133661 -9.613972 -7.309286 -3.674347 -0.287292 0.090373 0.000000 0.000000 0.000000 -2.330248 0.381754 1.672205 -69.363066 -0.819889 19.026976 -3.012035 -27.804998 0.003202 2.915426 -3.133394 -0.082358 -0.076976 0.045019 0.000000 0.000000 0.000000 0.000000 0.000000 0.000000 0.000000 17.358548 -8.340316 1.239746 72.724363 -5.096912 -5.586161 3.566994 16.860127 0.022414 -2.169420 14.210169 -0.283351 0.098328 -0.076020 -0.000000 0.000000 0.000000 0.000000 0.000000 0.000000 0.000000 
-1.994503 17.231380 0.542695 -0.112522 -77.014911 7.021201 -9.947732 0.779441 2.731446 -9.790897 -11.864681 -11.470126 -1.772477 -0.010001 13.889614 1.173326 6.410826 -7.075834 0.062600 0.000000 -34.393200 10.270379 2.805537 -2.301344 5.509138 -7.872588 -56.790186 -2.652060 -5.460555 85.767107 -1.898598 2.986661 37.916959 2.999600 -0.000000 -75.526900 -0.177443 -3.965022 0.299729 -0.763318 -3.996959 -2.927637 -7.124364 -4.057587 -0.135479 11.083255 -9.487742 -7.250107 -3.715273 -0.290405 0.101984 0.000000 0.000000 0.000000 -2.462313 0.035252 1.724384 -69.130978 -1.168253 19.425913 -2.997153 -27.923161 0.003162 3.019916 -3.240589 -0.088249 -0.077487 0.047832 0.000000 0.000000 0.000000 0.000000 0.000000 0.000000 0.000000 17.439032 -8.333301 1.294083 72.823964 -5.429090 -6.022740 3.617568 16.023794 0.021973 -1.891888 13.884659 -0.242681 0.097136 -0.073155 -0.000000 0.000000 0.000000 0.000000 0.000000 0.000000 0.000000 
